<svg xmlns="http://www.w3.org/2000/svg" width="1603.827" height="1496.493" viewBox="0 0 1603.827 1496.493">
    <path id="Path_211" data-name="Path 211" d="M1596.527,751.9c-109.522-180.817-85.9-200.086-276.092-361.732,38.24-159.254,66.325-497.682-177.982-347.787-131.5,104.9-347.024,236.168-440.275,36.536-45.761-225.145-220.035,92.3-184.588,197.642C434.841,310.273,324.808,518.324,370.749,302c.328-7.963,10.98-21.1,7.1-25.212-21.2,43.511-26.232,92.944-15.931,140.429-7.14,29.069-60.192-123.925-92.046-136.419,19.886,32.664,90.708,128.344,70.348,153.543C305.7,391.661,262.56,351.782,209.9,332.765c17.653,2.415,160.358,113.859,117.14,120.041-33.369-21.584-67.157-43.787-106.148-53.079,45.908,10.731,180.677,105.136,48,63.429-34.644-6.386-72.793-11.844-106.973-4.489,287.893-10.186,138.964,170.16-.057,268.318-24.68-3.48-49.1-19.407-74.912-21.43C248.407,759.748,54.342,719.13,0,726.549c33.393,12.142,185.526-6.046,112.681,46.2-26.274,2.445-54.486-.283-86.694,10.749,134.9-14.884,33.364.185,116.976,109.421,27.63,16.075,32.769,38.243,55.92,56.077-28.558,53.2-26.614,65.007,2.978,2.836,28.116-3.464-5.055,52.425-4.95,63.541,16.635-17.014,10.525-67.141,45.34-55.053,18.245,71.132,94.025,37.355,80.614,96.026,3.173-60.936,34.246-12.036,41.285,21.186,1.036,5.32,2.361,5.483,1.445-.449-3.167-15.357-10.582-31.166-13.75-46.708,23.575-14.776,40.309,66.256,48.481,75.966-40.781-108.116-13.686-92.354,42.474-16.006,0,0-41.977-60.956-41.977-60.956,82.954-28.842,104.815,44.9,136.932,106.939a295.767,295.767,0,0,0-66.96-116.452c63.989-12.621,122.127,139,146.95,190.379,5.651-77.481-196.555-241.085-35.5-188.887,22.662,1.47,66.056,58.72,44.97,21.011,20.329,16.117,34.138,39.231,41.5,63.945,3.483-9.485-3.114-32.055-4.513-42.966,21.936,16.728,24.056,61.8,28.748,73.769,36.771-118.7,9.011,161.879,26.751,198.07,7.787-15.567,6.767-43.176,16.967-55.957,5.983,29.054,5.13,200.523,26.983,80.952,4.125,393.174,931.128-143.283,832.884-608.289M1347.436,566.1c33.65,18.959,76.172,48.388,96.452,75.473-22.454-27.128-178.669-117.517-96.453-75.469m-31.3-224.145c-18.288,82.82-107.16,218.478-201.614,180.711,115.2-7.474,189.68-125.434,207.425-229.892,4.671-1.015-3.124,37.64-5.81,49.174m-2.714,208.666c-7.366-.562-1.333-3.87,0,0M1169.8,867.167c5.926,1.11.824,3.123-2.3.27-1.088-2.3,2.325-3.371,2.3-.27m-12.884-62.594c-62.8-17.069-124.093-25.076-187.339-39.057,69.306,22.34,141.843,52.233,196.426,99.923-89.007-68.076-197.128-93.588-304.378-115.915,109.617,9.495,217.99,26.518,324.844,61.984-7.595,2.906-20.653-5.567-29.559-6.929m-69.886,285.757c-8.813-24.452-8.169-49.52-24.495-71.472,40.6,28.995,45.57,87.97,26.005,133.44,5.445-19.944,2.6-42.018-1.505-61.968M1054.3,860.2c-192.808-63.218-377.743-75.919-579.03-48.713,193.189-52.995,437.384-12.116,631.237,64.974-15.33.107-35.74-11.912-52.2-16.267m-44.247,80.221v-1q.973.5,0,1m-363.614-55.2c-22.65-17.538-224.6-19.516-195.192-31.79,71.174,3.588,154.535,10.092,223.451,34.51-8.026,11.293-28.2,12.076-38.978,19.489,47.488,14.149,96.449,33.861,139.961,57.456-38-9.878-113.544-47.672-165.854-62.539-5.558-6.349,45.033-12.074,36.615-17.129m105.2,23.754C406.07,800.67,827.9,900.855,908.113,992.379c-49.59-32.271-101.54-61.105-156.474-83.412m127.492-2.545c6.985,2.609,17.091,7.163,22.474,12-9.456-3.581-68.847-26.622-22.476-12m-9.5-9.992c11.307-4.419,26.406,5.291,35.957,11.515l-35.957-11.515m7.989,29.986-62.977-21.97c21.562,2.722,45.878,8.059,62.968,21.967m-46.972-6.493c17.464,6.457-15.746-.839-22.5-2.524-7.628-3.544,17.936,1.055,22.5,2.524M596.222,819.5c-20.71-3.391-44.007-1.9-63.459-8,161.586-.836,334.905,47.691,475.79,125.931C882.21,878.917,739.188,834.142,596.222,819.5M933.59,864.473c12.693,2.8,23.346,13.4,34.98,18,.795,5.932-30.786-17.645-34.98-18M850.081,759.542c49.287,3.182,110.6,33.776,149.342,59.578C967.038,802.339,801.454,737.462,890.6,778.5c-9.859-4.053-65.779-18.315-40.521-18.958m98.938,13.015c84.173,46.533,47.083,41.665,0,0M891.6,785.514c40.78,6.635,33.9,16.767,0,0m.987,20.99c-43.052-12.984-65.548-44.357,0,0m24.552-85.01c-113.322-50.643,70.077,10.47,107.736,39.189-8.7.9-114.083-59.109-107.731-39.19m-27.923-50.047c10.309,4.776-10.441-.819-12.609-2.87,4.083-.111,8.764,1.429,12.609,2.87m-6.618-73.827c1.531,1.873-1.862,3.156-2.988.473-.993-2.366,2.841-.652,2.988-.473m6.993,55.947c-8.665.727-2.025-4.772,0,0m28.985,9.018c-26.323-1.271-39.383-16.974,0,0M911.589,631.6c.679.347-.585,1.7-1.989.979-.678-.347.586-1.7,1.989-.979m128.628,108.751c119.567,77.505-98.236-42.74-141.616-50.288,32.118-.567,99.312,34.661,141.618,50.29M961.57,690.566c.678.347-.586,1.7-1.989.979-.678-.347.585-1.7,1.989-.979m23.995,14.991c13.067,6.061,32.4,12.146,40.979,22.97-4.18-2.34-38.667-19.728-40.979-22.97m-96.954-23.986c5.834-.653,11.317,1.088,16.982,2-4.657,1.135-12.854.651-16.982-2m21.981,3v.979c-4.158.5-4.158-1.475,0-.979m44.743,5.737c-31.966-8.7-33.283-5.45-53.73-21.73,14.412.8,54.249,17.118,53.73,21.737m192.16-91.718c-12.816-1.666-9.539-9.383,0,0M1127.5,396.72c-3.869-4.932-2.216,1.005.015-6.992,2.328,9.483,9.934-4.9,2.956-6.744-13.774-17.133,14.915-12.722,27.466-16.275,25.794,27.423-.9-16.624-13.975-25.927-37.984-19.752,10.536-18.574,30.054-12.065,37.224,13-41.282-33.386-64.51-18.95,35.643-46.534,145.549-3.647,102.648-24.167-31.435-15.037-69.57-15.476-101.626-2.307,22.921-37.567,96.9-44.471,116.7-42.745-34.006-11.136-71.8-7.563-103.729,8.238,14.167-18.869,70.313-34.561,72.434-39.01-32.308,2.069-64.6,14.217-91.416,32.021,28.751-45.789,92.505-64.933,144.921-62.976-46.759-16.681-101.294-2.648-141.931,21.99,9.025-25.287,126.868-83.826,69.119-57.31-17.985,8.834-37.237,20.527-52.189,33.8-23.389,25.852-23.133,18.834-1.941-3.969,17.219-31.211,102.247-61.212,107.426-64.49-34.165,1.545-73.453,19.975-102.916,34.026,26.778-27.581,81.387-50.049,125.431-47.993-23.739-9.292-50.382-11.142-73.954-.992,222.178-70.3,70.465,358.756-39.022,345.794.724-1.1,6.052-10,2.542-8.965-15.276,8.613-35.671,41.125-18-3.005-48.7,44.2-3.094-4.534,3.489-30.992m31.986-292.847c4.805-4.525,10.519-4.745,15.981-8.987.216,3.336-12.717,8.991-15.981,8.987m141.949,195.906c1.491-.933,1.492,4.92,0,3.988v-3.988m-3.02,18.986c-5.714,2.236,3.347-12.847,3-13.989.377,2.057-2.276,13.191-3,13.989m-47.942,58.492c-.98-.437-27.649,29.268-29.007,25.966C1287.4,354.979,1355.641,42.147,1235.45,47.9c122.445-21.209,84.378,279.559,15.021,329.352m-53.514,45.427c41.064-59.563,50.231-50.077,0,0m-2.468,2.53,1.489-1.489c1.011.9-1.509,2.537-1.489,1.489m-38.213,57.748c69-29.222,105.947-101.879,140.136-163.2-24.625,80.013-101.239,207.1-199.493,174.486,5.674-3.079,43.9.443,59.354-11.284m76.97-455.742c118.94-28.543,94.154,205.634,78.47,274.33,71.943-481.822-284.437-196.521-385.1,51.727,10.677,6.319,34.246-20.049,42.945-22.027-33.005,43.066,8.285,13.374,29.991,3.509-13.276,17.176-37.052,27.984-57.976,33.981,22.353,3.583,54.73-5.9,73.963-23.989-2.815,6.722-22.44,23.482-27.968,28.487,65.648-23.029-3.942,22.111-29.983,23.5,31.321,11.954,60.971-3.709,85.463-23.978-9.983,17.992-28.513,28.832-45.492,38.955,18.649,2.273,41.642-2.953,56.966-14.5-22.209,26.69-54.312,31.9-86.954,26.981,39.391,18.13,131.2,63.783,19.129,31.843,10.785,9.579,50.806,22.6,67.823,38.621-102.371-23.523-18.841,3.263,26,34.976-21.5-6.237-45.893-12.884-68.482-11.98,11.453,7.9,67.2,20.717,89.45,38.5-13.266.352-42.876-13.994-62.471-13.5,14.223,9.762,72.324,28.109,96.482,48.489-15.856,2.352-66.831-20.292-92.957-18.53,33.941,11.434,85.974,39.133,101.252,60.185-165.82-72.148-36.99-17.014,34.667,38.276-21.11-11.61-45.319-30.477-67.476-39.464-6.437-1.169,30.421,25.139,29.5,25.477-30.951-11.557-65.932-28.061-100.946-31.475,34.632,17.785,74.957,40.1,101.949,68.449-19.683-8.359-41.794-29.56-62.959-31.5,25.718,15.591,70.086,33.079,82.462,57.955-37.749-29.69-83.959-49.677-129.444-64.929,30.692,19.421,63.372,43.029,84.468,72.928-21.266-16.685-49.972-37.151-74.468-42.971,29.05,17.845,58.023,40.92,77.949,68.971-36.532-29.916-84.907-53.394-126.935-67.953,63.045,17.661-26.794-17.073-46.98-22,13.4-3.545,30.681,4.95,45.491,4.993,17.678.337-79.574-20.822-76.472-20.984,15.117-3.856,41.809,5.427,60.968,1.993-7.883-3.675-91.091-23.344-47.973-15.975,71.913,1.217-16.579-11-41.216-18.249-7.775-10.032,30.655,5.453,39.212,6.258.818-6.875-34.756-15.493-40.973-19.5,2.307-9.1,23.983,2.422,36.5,1.492,16.657.271-57.045-17.131-54.487-17.495,14.4-5.5,36.284.537,53.552.442C906.676,574.123,817,576.8,892.595,570.631c-54.953-3.443-48.876-11.733,3.518-12.006.692-5.377-45.005-9.191-59.471-7-6.981-10.159,48-7.2,24.474-11.99H831.629c7.657-5.534-2.677-2.9-4.994-4.989,48.782-3.236,29.739-9.708-5.547-8.045-41.783,5.687,6.659-9.154,19.513-15.46-70.731,10.613-.735-3.7-31.954-2.973,29.159-19.613-49.231,8.342-68.5-8.495-38.167-14.654-80.159-41.14-122.427-21.021,14.289-15.518,8.2-2.1,6.985-15.98-72.869,30.624,65.725-72.217,95.969-66.945-86.115,2.222-163.411,125.453-111.22,32.175-4.991,2.578-15.47,25.1-13.238,12.768,10.66-40.8,69.542-85.216,99.464-107.924C634.221,350.855,554.508,497.115,577.722,430.7c-6.759,32.546,20.829-6.727,18.5-20.993-42.014,42.35,19.1-73.407,23.493-93.947-28.317,56.228-63.517,117.286-61,182.885-15.678-65.312,52.452-129.246-49.465-25.972-14.685,9.811-8.278,18.937-24.466,12.979C392.317,392.277,830.1,184.236,749.958,254.575c6.154,5,47.526-23.456,66.677-24.745-18.364,9.315-46.121,25.261-63.975,36.953,33.891-12.563,135.465-52.981,46.986-7,15.354-2.394,55.471-22.557,58.777-14.725-42.27,13.588-54.121,30.995-1.807,6.738,44.207-13.541-5.025,4.88-19.608,18.889-7.812,4.6,62.43-13.62,62.587-12.878-9.9,5.979-21.744,9.674-31.007,16.495-9.018,4.856,10.351.655,13.477.443,51.4-3.871-2.061,6.852-15.444,26.025,22.9-2.98,58.748-13.234,14.294,8.766-3.256,3.244,3.307,2.127,5.117,3.253.316-4.907,21.393-1.12,12.811.713-11.014,2.4-16.905.065-2.735,4.252,33.972-.37,23.041.143,8.486,22.988,10.428-.5,29.406-5.277,32.553-13.058,23.114-141.786,160.1-266.376,296.1-300.468M743.633,561.1c-50.793,75.227-92.876,85.924-176.886,52.475,183.918,31.3,86.918-45.337,203.906-64.939-7.2,5.97-18.933,6.848-27.017,12.464m6.023,25.527c-9.435,18.656-23.308,40.491-43.971,46.957,16.532-13.882,29.223-31.507,43.971-46.957M659.7,655.585c-25.275,6.25-53.259-3.461-71.956-20.989,23.007,10.386,45.892,20.866,71.956,20.989M588.106,527.518c40.224-62.665,112.066-28.7,158.876,6.314,7.9,2.481,14.861,6.077,1.347,5.734-111.49-46.342-131.588-50.477-193.56,59.571-37.466,25.893.97-7.462,11.4-23.593,9.263-15.426,12-32.713,21.942-48.026m-4.255-42.235c.29-2.013.677-5.731,2.874-6.609-.093,2.489-3.63,23.326-2.874,6.609M694.7,545.637c35.52,57.82-98.837,94.6-86.986,20.98,12.52,58.521,96.666,33.6,86.986-20.985m-49.257-8.769c15.04-3.092,21.512,18.448,6.5,24.495-18.327,7.384-22.986-21.107-6.5-24.495m-86.17,70.759c11.359-6.929,23.4-19.734,35.45-25.012,18.74,18.225-86.018,49.468-35.45,25.012M901.095,257.8v-1q.974.5,0,1M704.171,135.874l27.5,39.964c-7.737-1.9-34.224,11.348-20.346-.852,13.888-3.213,15.647-10.953-.64-8.147l5.992-8.98c-17.286,2.214-10.927,6.3-6-7-9.187-1.415-27.105,20.431-34.96,16.491,9.256-8.856,26.679-17.613,28.45-31.479m-1.555-2.109c-12.3,8.828-20.413,23.6-36.911,27.08,5-15.938,43.147-34.351,6-24.99,9.228-2.358,28.433-22.715,30.915-2.088m-57.9,32.074c-2.041-2.053,21.662-22.864,26.987-20.969Zm47.919-52.905c6.2,9.638-14.255,14.093-21.929,17.929,2.032-1.548,19.194-19.056,21.929-17.929M660.408,50.063c-42.995,19.658-6.856-6.463,5.283-15.141.418,3.342,4.742,19.216,2.956,20.939-11.352.381-20.339,20.557-31.936,23.03-.679-1.583,33.39-28.527,23.694-28.825m-27.7,55.314c5.963-7.044,41.754-42.106,24.994-34.487,3.088-1.52,6.487-8.125,9.988-6.495-7.683,7.682,9.776-6.2,7.1,7.024-1.505,5.249-8.084,10.393-8.659,16.4-10.638,15.687,9.963-10.08,12.554-9.921,21.158,36.143-5.475,50.064-36.974,56.959,9.817-14.84,41.34-24.358,35.493-44.956-2.987,2.809-24.878,15.723-18.017,5.973-4.7-.532-23.544,19.922-16.551,7.452,2.381-4.009,22.961-16.719,15.093-19.424-3.02,5.736-30.668,28.046-25.014,21.481m-40.393-34.4c69.8-108.011-56.529,109.661-36.543,172.333-18.66-42.172,4.188-125.326,36.546-172.335M379.782,434.154c113.69-163.683,377.33-279.963,572.781-238.336C725.348,151.523,424.239,357.2,395.306,473.7c-2.276-12.353,4.39-30.424,7.666-44.367.842-21.318-21.4,38.009-17.156,51.334-4.985-13.194,1.989-35.348,2-48.962-4.294,1.955-9.717,14.916-8.032,2.454M466.793,480.2c-5.321,4.927-2.113-30.206,4.991-31.493-3.421,10.134-5.643,20.828-4.991,31.492M362.117,453.472c1.028-2.1,10.246-17.126,12.7-14.771l-16.972,34.971c-.6-6.975,1.228-13.965,4.272-20.2M348.851,464.69c8.584,116.178-18.93,42,0,0M159.914,878.456c-5.746-15.875-9.352-40.553-26.989-52.964,19.46,5.749,29.588,34.363,26.981,52.964M124.934,784.01c29.374-75.43,204.455-34.935,142.945,46.465,10.714-56.39-106.586-34.387-142.946-46.462m98.946-49.469c.678.347-.585,1.7-1.989.979-.678-.346.585-1.7,1.989-.979m4,1v.979c-4.157.5-4.157-1.476,0-.979m-25.8,88.62c-9.236,15.7-2.127,29.453,7.816,42.286-45.318-20.968,3.682-84.8,40.483-56.953,33.89,50.117-19.956-32.933-48.3,14.667m55.8,98.77c10.321-4.291,26.335,7.429,0,0m35.458,51.474C374,991.062,455.23,974.8,530.516,944.6c27.133,30.372-210.359,74.34-237.182,29.806M534,976.146c-70.062,26.622-166.2,54.4-237.14,20.227,81.663,24.209,171.648-.823,251.879-26.969,0,.006-14.739,6.742-14.739,6.742M638.295,1031.3c-35.346-41.845-78.684-76.723-122.517-109.376,54.273,39.606,44.89,3.366,93.939-6.491-9.055,18.688-36.744,26.16-54.966,29.484,21.479,16.379,90.949,83.781,83.547,86.382m-44.566-92.869c-27.918,16.559-32.466,10.2,0,0m164.919,217.864h-.98c-.5-4.157,1.476-4.157.98,0m.02,1.009c.347-.678,1.7.585.979,1.989-.347.678-1.7-.585-.979-1.989m1,3c.348-.678,1.7.585.98,1.988-.347.678-1.7-.585-.98-1.988m27.953,197.453c-5.107-58.746-16.262-147.731-24.69-191.245,17.667,57.287,24.13,144.528,24.69,191.245m9.978-203.912c-1.347-4.816-9.43-30.5-4.681-22.3,2.536,4.2,8.867,31.367,4.681,22.3m2.745-104.726c-80.068-83.932-231.4-182.469-331.933-168.581,22.61,10.778,99.391,5.291,45.862,37.908-9.034-3.147-83.907-50.3-68.412-22.579,157.374,41.329-90.657,73.792-139.013,52.549-79.8-33.951,7.68,11.207,40.978,1.017-182.786-60.368-62.307-36.165-31.812-106.281C337.3,800.1,306.711,743.382,261.87,745.5c80.875,16.284,59.424,121.859-12.593,132.856-14-.338,9.4-2.758,11.591-6.907-9.725-.512-40.813,3.5-40.963-12,13.9,10.054,32.95,8.185,48.646,7.165,120.688-126.672-84.692-130.11-77.176-142.109,34.158-33.076,240.954-207.684,190.462-136.9,13.735-4.455,24.441-18.553,39.964-18.975-34.364,31.4-12.8,14.647,17,6.994-11.59,7.808-27.491,27.658-4.3,9.182,3.235-1.841,7.076-4.206,10.793-4.2,2.721,1.992-10.954,7.253-9.481,11,17.215-4.337,30.752-20.7,11.084,6.611-.126,5.241,9.215-8.971,12.9-7.6-9.951,16.284-12.626,13.364,3,5.48-29.907,24.857-9.168,11.54,8.991,2.5-4.858,13.842-21.308,18.983,1.785,11.266,10.135-2.57-16.918,11.367-17.772,13.711l18.985-2.985c-28.393,13.711,15.042.151,24.995,12.98-13.353-4.041-54.489,5.509-19,4.5-14.013,6.432-47.634,16.965-11.468,12.495,7.088,2.825-13.218,3.864-14.723,6.031-12.523,11.258-27.012,11.852-1.793,11.458-54.551,32.445,21.007-1.821-27.979,25.486,26.591-3.349,5.3,5.274,24.379,5.112,14.218,4.03-17.945,6.735-14.909,10.864,36.777-9.472-3.994,9.831-9.454,14.524,30.833-4.68,70.959,3.447,87.938,30.466a718.917,718.917,0,0,0-86.005,17.451C553.7,781.059,844.294,652.94,1010.536,761.54c-50.655-17.2-95.187-37-152.466-34.956-126.4-3.114-254.012,18.562-376.292,47.933,18.6,5.262,43.033-15.731,52.939,11.528,30.862,4.163-138.489,27.817-75.387,25.374,4.765,1.862,4.213,3.722-1,4.114-47.321-8.4-36,20.411-16.121,3.032,32.738,2.918,77.127-9.971,108.05,2.9,13.474,25.25,65.756,13.713,93.449,26.5,115.055,48.746-70.119-15.79-104.449-9.5-18.019-4.744-67.23-.038-24.015,4.024,22.579,1.789,54.992,9.965,14,7.975,11.691,3.808-33.1,3.223-37.7-.037-1.759-5.359-73.074-.372-61.768,11.542C565.2,864.136,726.5,950.509,800.332,1049.116M442.032,774.27c7.822.613,43.357-14.891,39.946-8.057-14.427,1.594-41.62,19.47-50.173,6.792,3.267-.118,7.027,1.461,10.227,1.262m1.743-2.747v.979c-4.158.5-4.158-1.476,0-.979m370.354,291.807c-2.824-4.425-8.679-7.18-10.017-11.953,4.485,2.65,7.368,7.542,10.017,11.953m2.479,132.945c-15.688-62.45.434-64.555,0,.007m19.99,64.966c8.011-43.8,17.649-102.578-9.981-146.918,43.956,39.345,32.352,99.442,9.981,146.918m15.1,30.552c-3.507,52.126-5.641-9.641,4.47-29.512,9.883-20.444-2.92,21.772-4.47,29.512M864.6,1175.281c-3.694-1.08-1.365-16.261-1.99-18.984.793,4.257,2.582,14.749,1.99,18.984m8.864,62.328c7.294-48.175-2.45-99.925-34.835-137.275l12.515,9.963c21.768,17.67,41.626,71.381,27.466,14.031,25.091,28.714,13.4,82.272.171,115.6-9.147,20.273-11.464,23.445-5.315-2.314m4.146,59.6c.879-20.374,15.76-41.094,28.974-54.964l-28.974,54.964M901.609,1161.3c10.537,49.155.17,63.024,0,0m23.8,99.262c-5.845,6.379,11-55.461-.819-69.271-1.538,9.641-12.915,51.755-17.563,47.908,23.694-45.323-2.286-119.59-41.392-149.372,39.833,17.419,67.471,56.576,72.935,99.452,3.541-39.657-6.815-78.885-33.487-108.916,66.3,38,57.133,124.031,20.326,180.2m30.164-45.3c13.6-49.232,11.666-107.977-24.983-146.916,98.123,50.729,16.381,177.723,24.973,146.917m66.859-31.594c-6.378,14.543-18.257,32.839-26.873,46.1-4.037-.287,34.1-61.6,26.872-46.1m1.611-5.385v-1q.975.5,0,1m7.507,20.988c16.47-26.87,28-62.249,23.485-94.942-1.635,25.688-62.649,119.559-35.01,64.947,6.668-18.956,13.042-49.964,6.521-68.943,2.488,25.532-9.148,63.4-26.981,81.955,7.764-45.337-27.678,60.068-38.984,67.959,29.446-55.938,42.145-134.657-2.988-187.409,27.972,12.836,47.52,48.332,49.972,72.473,21.309-39.718-60.817-118.267,8.486-52.964-2.278-14.643-11.6-27.756-22.485-37.491,21.812,3.875,43.412,28.353,49.964,49.471,6.335-28.513-11.017-54.407-23.489-75.945,15.848,4.281,36.28,39.286,39.381,37.6-2.692-11.222-10.719-22.437,3.137-8.146,40.212,41.306.827,115.294-31,151.443m40.359,20.364c32.862-46.749,59.359-152.2,8.092-215.249,78.01,47.738,38.175,158.215-8.09,215.249m51.578-58.351c.061-37.234,23.141-123.131-28.97-175.891,72.547,33.027,54.887,116.568,28.965,175.891m17.28-43.194c.791-4,2.117-10.906,4.714-13.766l-3.995,21.992c-3.045,3.723-.889-7.364-.719-8.226m3.163,83.117c31.538-59.859,25.029-174.236-22.432-241.8,82.874,50.978,78.813,172.011,22.43,241.8m50.536-58.913c2.7-45.7,12.853-54.183,0,0m13.007-49.964c-.535,3.265-3.659,19.109-4,9.512-3.433-57.192-29.631-117.688-56.468-162.441,47.078,36.341,70.272,93.185,60.46,152.932m27.692,9.2c-3.953,16.03-11.968,54.219-21.256,57.706,51.433-71.45-84.842-296.093-14.436-197.839,1.889-9.652-12.345-23.66-17.982-32.48,53.886,33.307,66.035,112.893,53.674,172.612m37.3,37.3c6.567-49.845-13.148-180.272-70.015-238.864,28.913,21.622,62.89,56.887,71.5,92.431-1.506-31.28-14.036-69.844-32.475-94.968,62.076,53.563,61.258,167.55,30.995,241.4m45.949-69.487c1.448-69.406-34.563-145.455-67.986-198.865,56.322,49.01,79.327,125.435,67.986,198.865m24.987-11a460.958,460.958,0,0,0-66.95-211.874c55.023,53.33,78.912,136.864,66.95,211.874m22.728-112.156c-16.665-46.375-40.073-90.379-67.685-131.217,30.732,23.029,67.9,103.715,67.685,131.217m30.563,8.43c-13.349-75.91-59.676-141.141-104.251-202.1,60.579,44.259,102.572,140.919,104.246,202.1m-102.76-243.057c44.007,31.62,78.805,74.89,95.457,126.91-24.094-46.255-61.524-87.187-95.456-126.91m132.442,205.86c-15.67-93.087-72.2-172.055-136.932-237.851,80.363,51.082,124.361,145.638,136.932,237.851m-25.989-178.9c-4.906-2.257.59-6.5,0,.006m7,54.969c-26.883-40.025-57.15-82.753-89.944-116.941,39.851,29.264,72.728,70.482,89.941,116.93M1306.423,641.6c35.749,22.42,66.109,57.617,90.958,91.932L1306.423,641.6M1463.35,756.518c-40.71-57.916-101.813-109.945-163.926-147.9,69.213,28.084,127.812,83.013,163.926,147.9m.505,2v-1q.974.5,0,1m-40.96-95.973c-35.551-33.7-79.407-64.132-122.474-86.912,66.572,3.051,222.049,186.14,122.474,86.915" transform="translate(0 0.003)" fill="#191e24"/>
  </svg>
  